<?xml version="1.0" standalone="no"?>
<!DOCTYPE svg PUBLIC "-//W3C//DTD SVG 20010904//EN"
 "http://www.w3.org/TR/2001/REC-SVG-20010904/DTD/svg10.dtd">
<svg version="1.0" xmlns="http://www.w3.org/2000/svg"
 width="500.000000pt" height="500.000000pt" viewBox="0 0 500.000000 500.000000"
 preserveAspectRatio="xMidYMid meet">

<g transform="translate(0.000000,500.000000) scale(0.100000,-0.100000)"
fill="#000000" stroke="none">
<path d="M1200 3633 c-457 -37 -817 -317 -929 -722 l-20 -71 77 0 77 0 22 80
c77 274 265 505 498 611 168 76 383 95 555 50 310 -82 555 -337 645 -673 l18
-68 78 0 77 0 -9 38 c-100 378 -415 668 -803 736 -91 16 -218 25 -286 19z"/>
<path d="M2890 3580 c0 -6 11 -32 24 -59 14 -27 57 -160 96 -297 39 -137 80
-279 91 -316 l20 -68 69 0 c42 0 70 4 70 10 0 6 -36 137 -80 290 -75 262 -90
319 -105 413 l-6 37 -89 0 c-55 0 -90 -4 -90 -10z"/>
<path d="M3663 3578 c53 -123 78 -198 148 -445 l83 -293 74 0 c65 0 73 2 68
18 -3 9 -15 51 -26 93 l-22 75 61 215 c34 118 73 242 86 277 14 34 25 64 25
67 0 3 -11 5 -25 5 -17 0 -26 -6 -29 -22 -3 -13 -10 -45 -16 -73 -20 -97 -118
-410 -124 -395 -20 55 -101 357 -110 415 l-12 70 -93 3 c-73 2 -92 0 -88 -10z"/>
<path d="M4875 3548 c-4 -24 -49 -189 -101 -367 -52 -178 -94 -328 -94 -333 0
-4 7 -8 15 -8 15 0 14 -5 125 383 39 137 80 272 90 300 25 65 25 67 -4 67 -21
0 -25 -6 -31 -42z"/>
<path d="M440 2687 c-29 -14 -40 -68 -19 -93 17 -21 90 -53 106 -47 21 8 15
22 -7 16 -11 -3 -20 -3 -20 1 0 3 9 15 20 26 28 28 25 64 -6 89 -31 24 -40 25
-74 8z m68 -19 c19 -19 14 -55 -9 -72 -43 -30 -93 20 -63 63 17 23 53 28 72 9z"/>
<path d="M710 2651 c0 -55 17 -81 55 -81 13 0 31 10 39 22 18 25 21 93 6 103
-6 4 -10 -13 -10 -44 0 -38 -4 -53 -18 -60 -31 -17 -52 5 -52 54 0 24 -4 47
-10 50 -6 4 -10 -13 -10 -44z"/>
<path d="M1010 2638 c-15 -35 -26 -65 -23 -68 2 -3 9 3 14 13 7 11 22 17 44
17 22 0 37 -6 44 -17 5 -10 12 -15 16 -11 7 6 -51 128 -61 128 -3 0 -18 -28
-34 -62z m53 2 c4 -16 0 -20 -19 -20 -21 0 -23 2 -12 25 12 27 23 26 31 -5z"/>
<path d="M1278 2694 c-5 -4 -8 -34 -8 -66 l0 -58 45 0 c25 0 45 5 45 10 0 6
-16 10 -35 10 l-34 0 -3 56 c-2 31 -6 52 -10 48z"/>
<path d="M1527 2693 c-11 -10 -8 -123 3 -123 6 0 10 28 10 65 0 65 -1 71 -13
58z"/>
<path d="M1710 2690 c0 -5 9 -10 20 -10 18 0 20 -7 20 -55 0 -30 5 -55 10 -55
6 0 10 25 10 55 0 48 2 55 20 55 11 0 20 5 20 10 0 6 -22 10 -50 10 -27 0 -50
-4 -50 -10z"/>
<path d="M1960 2693 c0 -4 9 -21 20 -38 11 -16 20 -42 20 -57 0 -16 5 -28 10
-28 6 0 10 9 10 20 0 11 12 39 26 61 32 52 24 63 -9 14 l-25 -37 -16 30 c-16
31 -36 50 -36 35z"/>
<path d="M2435 2686 c-26 -18 -13 -44 31 -62 34 -14 36 -17 21 -31 -14 -14
-21 -15 -43 -5 -20 10 -25 10 -22 0 3 -8 21 -13 44 -13 35 0 39 3 42 27 3 23
-1 28 -30 36 -18 4 -34 16 -36 25 -3 14 4 17 35 17 28 0 34 3 23 10 -21 14
-43 12 -65 -4z"/>
<path d="M2670 2690 c0 -5 9 -10 20 -10 18 0 20 -7 20 -55 0 -30 5 -55 10 -55
6 0 10 25 10 55 0 48 2 55 20 55 11 0 20 5 20 10 0 6 -22 10 -50 10 -27 0 -50
-4 -50 -10z"/>
<path d="M2937 2693 c-4 -3 -7 -33 -7 -65 l0 -58 51 0 c31 0 48 4 44 10 -3 6
-22 10 -41 10 -27 0 -34 4 -34 19 0 15 8 21 38 24 l37 4 -37 1 c-31 2 -38 6
-38 22 0 16 7 20 35 20 19 0 35 5 35 10 0 11 -73 14 -83 3z"/>
<path d="M3200 2635 l0 -65 45 0 c25 0 45 5 45 10 0 6 -16 10 -35 10 -28 0
-35 4 -35 19 0 15 8 21 33 24 l32 4 -32 1 c-26 2 -33 6 -33 22 0 16 7 20 36
20 21 0 33 4 29 10 -3 6 -24 10 -46 10 l-39 0 0 -65z"/>
<path d="M3468 2694 c-5 -4 -8 -34 -8 -66 l0 -58 45 0 c25 0 45 5 45 10 0 6
-16 10 -35 10 l-34 0 -3 56 c-2 31 -6 52 -10 48z"/>
<path d="M3944 2688 c-22 -34 -54 -112 -48 -117 3 -3 10 2 15 12 13 22 74 24
83 2 3 -8 10 -15 15 -15 10 0 -33 107 -49 123 -4 5 -12 3 -16 -5z m14 -66
c-27 -5 -32 2 -18 29 l13 22 13 -24 c11 -22 11 -24 -8 -27z"/>
<path d="M4187 2693 c-11 -10 -8 -123 2 -123 6 0 11 21 13 47 l3 47 35 -47
c19 -25 38 -47 43 -47 4 0 7 30 7 66 0 41 -4 63 -10 59 -5 -3 -10 -25 -10 -47
l0 -41 -36 46 c-40 52 -38 50 -47 40z"/>
<path d="M4478 2694 c-5 -4 -8 -34 -8 -66 l0 -58 38 0 c53 0 82 23 82 64 0 19
-7 39 -15 46 -17 14 -87 25 -97 14z m87 -34 c15 -17 16 -24 7 -45 -9 -20 -19
-25 -47 -25 -35 0 -35 0 -35 45 0 43 1 45 28 45 16 0 37 -9 47 -20z"/>
<path d="M898 2444 c-10 -9 33 -125 45 -121 6 2 17 22 25 46 16 47 24 45 42
-11 6 -21 15 -38 20 -38 10 0 52 121 45 128 -5 5 -35 -61 -35 -78 0 -24 -17
-7 -30 33 -8 23 -19 41 -25 39 -5 -1 -17 -23 -26 -50 l-16 -47 -17 53 c-18 54
-19 56 -28 46z"/>
<path d="M1250 2385 l0 -65 45 0 c25 0 45 5 45 10 0 6 -16 10 -35 10 -28 0
-35 4 -35 19 0 15 8 21 33 24 l32 4 -32 1 c-26 2 -33 6 -33 22 0 16 7 20 36
20 21 0 33 4 29 10 -3 6 -24 10 -46 10 l-39 0 0 -65z"/>
<path d="M1518 2444 c-5 -4 -8 -34 -8 -66 l0 -58 45 0 c25 0 45 5 45 10 0 6
-16 10 -35 10 l-34 0 -3 56 c-2 31 -6 52 -10 48z"/>
<path d="M1770 2385 l0 -65 39 0 c22 0 46 7 55 15 50 51 11 115 -70 115 -23 0
-24 -3 -24 -65z m84 29 c35 -34 12 -74 -41 -74 -32 0 -33 1 -33 45 0 43 1 45
29 45 16 0 37 -7 45 -16z"/>
<path d="M2060 2386 c0 -37 4 -66 10 -66 6 0 10 26 10 59 0 33 -4 63 -10 66
-6 4 -10 -18 -10 -59z"/>
<path d="M2260 2388 c0 -39 4 -68 10 -68 6 0 10 19 10 43 l1 42 37 -43 c20
-23 40 -42 45 -42 11 0 8 118 -3 125 -6 4 -10 -12 -10 -42 l0 -48 -45 50 -44
50 -1 -67z"/>
<path d="M2575 2438 c-26 -15 -35 -28 -35 -55 0 -35 35 -65 73 -61 28 3 32 7
34 33 1 18 -1 21 -3 9 -10 -46 -84 -28 -84 20 0 33 24 50 60 42 35 -6 41 9 8
18 -29 7 -29 7 -53 -6z"/>
<path d="M3018 2444 c-10 -9 33 -125 45 -121 6 2 17 22 25 46 16 47 24 45 42
-11 6 -21 15 -38 20 -38 10 0 52 121 45 128 -5 5 -35 -61 -35 -78 0 -24 -17
-7 -30 33 -8 23 -19 41 -25 39 -5 -1 -17 -23 -26 -50 l-16 -47 -17 53 c-18 54
-19 56 -28 46z"/>
<path d="M3385 2425 c-14 -13 -25 -33 -25 -45 0 -50 79 -80 113 -42 25 27 22
78 -5 96 -32 22 -55 20 -83 -9z m80 -15 c37 -40 -19 -95 -64 -63 -23 16 -28
52 -9 71 18 18 53 14 73 -8z"/>
<path d="M3671 2383 c0 -51 3 -62 9 -45 12 27 41 29 58 2 7 -11 17 -20 23 -20
8 0 8 5 -1 15 -10 12 -10 21 1 46 12 29 11 33 -10 50 -13 11 -36 19 -52 19
l-29 0 1 -67z m75 32 c9 -21 -15 -47 -40 -43 -15 2 -22 12 -24 31 -3 24 0 27
28 27 18 0 33 -6 36 -15z"/>
<path d="M3940 2385 c0 -37 4 -65 10 -65 6 0 10 9 10 19 0 32 20 35 49 7 37
-36 48 -33 17 5 -31 37 -32 41 -6 64 11 10 20 23 20 29 0 5 -18 -8 -40 -29
l-40 -39 0 37 c0 20 -4 37 -10 37 -6 0 -10 -28 -10 -65z"/>
<path d="M4226 2437 c-27 -20 -16 -50 22 -61 17 -5 32 -15 32 -21 0 -19 -29
-26 -52 -14 -16 9 -19 8 -16 -3 3 -7 18 -14 35 -16 59 -6 70 55 12 68 -13 3
-25 14 -27 24 -3 16 1 18 27 14 20 -3 30 -1 28 6 -5 17 -40 18 -61 3z"/>
<path d="M300 2235 c0 -13 66 -135 105 -195 53 -79 168 -195 250 -251 188
-130 458 -202 686 -185 80 6 88 5 93 -12 10 -30 95 -111 140 -134 57 -29 127
-47 219 -54 65 -6 77 -4 77 8 0 11 -15 17 -53 21 -99 12 -147 35 -219 108 -38
37 -68 71 -68 77 0 6 33 20 73 32 158 48 290 125 410 240 96 90 188 223 227
325 l10 25 -74 0 -73 0 -52 -103 c-109 -220 -293 -388 -505 -463 l-40 -14 -55
59 c-76 81 -127 105 -216 105 -87 0 -135 -22 -198 -95 l-46 -52 -52 21 c-186
78 -376 272 -460 471 l-28 66 -75 3 c-42 2 -76 0 -76 -3z m979 -449 c32 -17
84 -73 106 -116 l15 -29 -47 -7 c-83 -12 -323 15 -323 37 0 5 17 28 38 51 63
70 149 96 211 64z"/>
<path d="M3295 2228 c2 -7 32 -110 65 -228 34 -118 70 -245 81 -282 l20 -68
82 0 82 0 -3 48 c-3 42 53 261 134 525 3 11 0 17 -10 17 -17 0 -14 8 -101
-298 -33 -117 -61 -198 -65 -190 -4 7 -38 120 -75 251 l-68 237 -73 0 c-54 0
-72 -3 -69 -12z"/>
<path d="M4070 2230 c0 -6 37 -139 81 -295 l82 -285 84 0 83 0 -6 38 c-4 28
11 96 65 285 39 136 71 252 71 257 0 6 -6 10 -13 10 -9 0 -37 -80 -82 -237
-37 -131 -71 -244 -75 -252 -4 -7 -38 98 -77 235 l-70 249 -71 3 c-46 2 -72
-1 -72 -8z"/>
</g>
</svg>
